<svg version="1.1" id="Layer_1" xmlns="http://www.w3.org/2000/svg" xmlns:xlink="http://www.w3.org/1999/xlink" x="0px" y="0px"
	 width="100%" viewBox="0 0 1264 495" enable-background="new 0 0 1264 495" xml:space="preserve">
<path fill="#EDF0F2" opacity="1.000000" stroke="none" 
	d="
M1184.000000,496.000000 
	C789.333374,496.000000 395.166718,496.000000 1.000053,496.000000 
	C1.000035,331.000031 1.000035,166.000061 1.000018,1.000075 
	C422.333282,1.000050 843.666565,1.000050 1265.000000,1.000025 
	C1265.000000,165.999924 1265.000000,330.999847 1265.000000,495.999878 
	C1238.166626,496.000000 1211.333374,496.000000 1184.000000,496.000000 
M713.771118,267.499512 
	C713.771118,275.093933 713.771118,282.688354 713.771118,290.248810 
	C720.258667,290.248810 725.984985,290.248810 731.996460,290.248810 
	C731.996460,282.514282 731.926208,275.197937 732.014160,267.883514 
	C732.126160,258.566895 732.229553,249.246307 732.607056,239.938400 
	C732.804871,235.061020 735.697449,231.567535 739.797791,229.185684 
	C749.712341,223.426437 766.841797,227.511444 766.520569,243.997223 
	C766.254578,257.648438 766.475891,271.309174 766.481079,284.965698 
	C766.481750,286.732544 766.481201,288.499390 766.481201,290.265930 
	C772.931091,290.265930 778.654907,290.265930 784.540283,290.265930 
	C784.540283,271.729828 784.705872,253.599091 784.448425,235.474365 
	C784.361023,229.316589 781.569397,223.929443 777.330872,219.354233 
	C765.613220,206.705933 744.570251,206.074356 731.878357,218.179199 
	C730.510925,219.483368 729.941040,221.623672 729.008789,223.361893 
	C712.211304,206.592056 700.540527,205.587753 679.903381,217.770126 
	C679.584717,215.624405 679.282959,213.592163 678.988708,211.610535 
	C672.971436,211.610535 667.268311,211.610535 661.596741,211.610535 
	C661.596741,238.112396 661.596741,264.160614 661.596741,290.242798 
	C667.692261,290.242798 673.403076,290.242798 679.474487,290.242798 
	C679.474487,288.172394 679.474304,286.531769 679.474487,284.891144 
	C679.475647,272.233856 679.400085,259.575897 679.515503,246.919647 
	C679.562317,241.789368 679.470154,236.565079 683.303833,232.314133 
	C687.836487,227.288101 695.905273,225.347992 703.098694,227.756042 
	C709.702637,229.966736 713.457397,234.924408 713.680664,242.519241 
	C713.915527,250.506653 713.757812,258.505615 713.771118,267.499512 
M1054.994751,280.454956 
	C1054.994751,283.579651 1054.994751,286.704376 1054.994751,290.078552 
	C1061.265503,290.078552 1066.988647,290.078552 1072.826904,290.078552 
	C1073.124756,287.767670 1073.382202,285.769928 1073.666992,283.560150 
	C1094.340088,295.458832 1110.929688,294.465729 1124.031494,280.873444 
	C1137.320435,267.087097 1139.529541,243.675812 1128.929199,227.123978 
	C1122.897461,217.705688 1114.482422,211.521149 1103.244995,209.781967 
	C1092.235474,208.078018 1082.330566,210.813873 1073.027588,219.564789 
	C1073.027588,202.346634 1073.027588,186.944962 1073.027588,171.641098 
	C1066.730957,171.641098 1061.008423,171.641098 1054.994751,171.641098 
	C1054.994751,207.871552 1054.994751,243.669266 1054.994751,280.454956 
M609.787598,278.478699 
	C609.776123,265.652008 609.959595,252.821335 609.698181,239.999710 
	C609.438599,227.268646 603.983032,217.251526 591.985474,212.218338 
	C580.028137,207.201996 568.504517,208.645126 558.297546,217.228363 
	C557.624939,217.793961 556.816284,218.197800 555.212524,219.228653 
	C555.212524,202.813339 555.212524,187.264465 555.212524,171.773499 
	C548.953186,171.773499 543.350891,171.773499 537.549866,171.773499 
	C537.549866,211.443832 537.549866,250.801239 537.549866,290.310181 
	C543.622742,290.310181 549.342102,290.310181 555.503784,290.310181 
	C555.503784,288.317719 555.503723,286.685516 555.503784,285.053314 
	C555.504150,273.059509 555.416077,261.064667 555.558594,249.072525 
	C555.601685,245.445755 555.740173,241.661469 556.780823,238.236740 
	C559.286926,229.989349 567.486938,225.582306 576.670593,226.980103 
	C585.514160,228.326141 591.269226,234.726898 591.464539,244.344955 
	C591.738403,257.832581 591.557983,271.329407 591.571350,284.822296 
	C591.573059,286.596161 591.571594,288.369995 591.571594,290.277039 
	C597.957214,290.277039 603.674011,290.277039 609.787354,290.277039 
	C609.787354,286.412292 609.787354,282.939636 609.787598,278.478699 
M364.766296,290.283112 
	C365.128540,288.764038 365.801849,287.245880 365.806366,285.725739 
	C365.876221,262.263367 365.865265,238.800735 365.845764,215.338181 
	C365.844696,214.063797 365.603729,212.789612 365.450836,211.282959 
	C359.548401,211.282959 353.948242,211.282959 348.069855,211.282959 
	C347.802368,213.582687 347.542328,215.818390 347.148804,219.201691 
	C339.351044,211.392349 330.393677,208.703751 320.342499,209.435516 
	C309.959320,210.191452 301.588013,214.885712 295.008881,222.772217 
	C282.090363,238.257858 281.733765,262.005005 294.128021,277.850861 
	C299.425964,284.624176 306.214264,289.239288 314.664093,291.155853 
	C326.580872,293.858826 337.345612,291.341003 347.097504,282.922333 
	C347.506195,285.925201 347.805206,288.121918 348.123749,290.462463 
	C353.597076,290.462463 358.745911,290.462463 364.766296,290.283112 
M215.535477,216.074432 
	C200.334763,227.073700 193.905548,243.723984 198.157410,261.079742 
	C202.150330,277.378418 214.969818,289.200317 231.999405,291.580444 
	C246.793030,293.648132 259.845947,290.050568 270.069183,278.947876 
	C265.780396,274.831238 262.010101,271.212280 258.240540,267.594055 
	C249.388596,275.174133 239.119781,277.333771 227.887772,272.701141 
	C221.563599,270.092743 217.785934,265.082733 215.958527,257.603516 
	C236.023636,257.603516 255.263290,257.603516 274.837463,257.603516 
	C275.211639,254.640289 275.777283,252.192780 275.788055,249.742828 
	C275.853577,234.883011 270.568604,222.464951 257.455017,214.811844 
	C243.774338,206.827805 229.760971,207.845566 215.535477,216.074432 
M959.551392,265.945923 
	C967.150513,283.614960 982.869019,293.415131 1001.432983,292.058258 
	C1019.112244,290.766083 1033.860107,278.717255 1038.396729,261.858887 
	C1043.072144,244.485641 1036.545044,226.644241 1021.846252,216.619080 
	C1007.655029,206.940063 987.789124,207.192856 973.955872,217.228531 
	C958.736572,228.269684 953.349060,245.844406 959.551392,265.945923 
M871.361633,224.034134 
	C873.176392,220.023148 874.991089,216.012146 877.155884,211.227417 
	C871.080688,211.227417 866.105896,211.433243 861.158447,211.154266 
	C857.918091,210.971527 856.448730,212.299759 855.299744,215.156067 
	C850.269043,227.661514 845.059753,240.095413 839.876221,252.538971 
	C838.621521,255.550873 837.218079,258.500793 835.467957,262.405121 
	C834.403076,259.917542 833.719849,258.430634 833.122864,256.909882 
	C827.710388,243.122421 822.365479,229.307892 816.841309,215.565399 
	C816.184937,213.932571 814.661072,211.551147 813.388428,211.451950 
	C807.661743,211.005524 801.880493,211.257263 795.497498,211.257263 
	C796.290894,213.471634 796.765869,215.021332 797.390991,216.507935 
	C805.970459,236.912643 814.469910,257.352234 823.256348,277.667603 
	C824.879333,281.420258 824.740723,284.367828 822.910400,287.947754 
	C817.532288,298.466919 812.502930,309.164703 807.372986,319.809875 
	C806.833984,320.928223 806.533508,322.161560 805.948975,323.839539 
	C811.174255,323.839539 815.838684,323.564117 820.453552,323.923706 
	C824.388428,324.230316 826.306274,322.819305 827.940369,319.200409 
	C842.186157,287.651031 856.653687,256.201813 871.361633,224.034134 
M154.892685,258.281281 
	C158.613892,259.695770 162.648010,260.620209 165.933090,262.717743 
	C167.757950,263.882874 169.328568,267.079834 169.168457,269.223206 
	C169.030777,271.066254 166.569031,273.306641 164.596146,274.286194 
	C162.489731,275.332031 159.758789,275.312408 157.288101,275.397339 
	C148.697327,275.692596 141.515305,272.298248 136.300156,266.866791 
	C132.185822,270.744843 128.478958,274.238831 124.782845,277.722687 
	C134.998917,292.449646 163.328140,297.114166 177.564072,286.385681 
	C183.504196,281.909088 186.583878,275.939911 186.996964,268.467194 
	C187.557510,258.326782 183.292923,250.834518 174.226135,246.736786 
	C167.442871,243.671127 160.106857,241.844193 153.071091,239.315063 
	C149.420593,238.002838 145.368774,236.454422 146.171799,231.526672 
	C146.957535,226.704895 151.326477,226.319611 155.138062,226.006134 
	C163.069595,225.353806 169.899475,227.891510 174.633286,233.471405 
	C178.719620,229.696121 182.568832,226.139923 186.419128,222.582703 
	C176.464111,207.892914 149.283157,204.603592 135.944870,216.125229 
	C126.501350,224.282547 124.010956,246.023788 140.971924,253.402786 
	C145.226624,255.253830 149.733719,256.524689 154.892685,258.281281 
M523.090027,224.018829 
	C522.193726,222.565842 521.563660,220.825150 520.356567,219.708008 
	C514.032898,213.855667 506.417603,210.776245 497.905212,209.805161 
	C479.691711,207.727386 462.607635,217.061249 455.274353,233.097015 
	C447.786469,249.470779 451.615509,269.489777 464.511444,281.390167 
	C477.472595,293.350739 498.401550,295.756104 513.815186,286.779236 
	C517.452759,284.660736 520.576172,281.659302 525.240356,278.056610 
	C522.310974,275.725159 520.048950,274.252136 518.206604,272.368591 
	C516.276184,270.395020 514.748657,268.027344 513.204773,266.037720 
	C499.615387,276.446564 485.684967,276.897308 476.936615,268.220367 
	C468.821014,260.171082 467.585358,244.494141 475.316620,235.711227 
	C478.497253,232.098007 483.448059,229.153214 488.122864,227.934937 
	C497.160736,225.579559 505.467529,228.487778 512.100830,235.054810 
	C515.874084,231.339981 519.309265,227.957932 523.090027,224.018829 
M923.932556,217.634186 
	C923.931641,243.928391 923.920593,270.222595 923.940002,296.516815 
	C923.943115,300.771118 922.922668,304.545776 918.874756,306.632629 
	C914.401123,308.938934 909.883423,308.731110 905.576782,306.034363 
	C904.484375,305.350311 903.496277,304.499603 902.927734,304.074768 
	C898.916748,307.896393 895.138550,311.496246 891.380005,315.077362 
	C898.781738,324.360687 911.868103,327.795532 924.072205,323.755829 
	C934.961548,320.151337 941.909241,310.913574 941.995667,298.754974 
	C942.195557,270.631561 942.079224,242.505859 942.063354,214.381104 
	C942.062805,213.452286 941.761169,212.523636 941.590088,211.538269 
	C935.683228,211.538269 930.105225,211.538269 924.170288,211.538269 
	C924.082581,213.435913 924.007629,215.056656 923.932556,217.634186 
M404.412994,215.469879 
	C404.762817,212.427444 403.900238,210.748169 400.345215,211.105362 
	C397.379181,211.403381 394.332306,211.411499 391.368988,211.097290 
	C387.191803,210.654388 386.020599,212.211731 386.054047,216.366562 
	C386.241608,239.669586 386.139008,262.974884 386.157471,286.279419 
	C386.158478,287.558441 386.356903,288.837311 386.480896,290.325836 
	C392.483765,290.325836 398.193115,290.325836 404.389587,290.325836 
	C404.389587,288.185547 404.372955,286.391724 404.392242,284.598297 
	C404.542450,270.626770 404.601898,256.653320 404.890411,242.684616 
	C405.070221,233.980225 410.615662,227.609848 419.285370,227.099762 
	C423.819580,226.833008 428.466278,228.478546 432.251617,229.122528 
	C435.951477,225.659698 439.894562,221.969223 443.843750,218.272995 
	C435.806427,208.104919 419.071716,206.398605 408.576599,214.753342 
	C407.492188,215.616623 405.881165,215.818405 404.412994,215.469879 
M940.624878,194.156876 
	C946.624451,186.574539 944.139465,176.913620 935.750854,175.208282 
	C930.855713,174.213150 926.164368,176.318588 923.870667,180.539886 
	C921.505005,184.893524 922.335083,190.422287 925.872192,193.871796 
	C929.589355,197.496964 934.453308,197.765579 940.624878,194.156876 
z"/>
<path fill="#FC3408" opacity="1.000000" stroke="none" 
	d="
M713.771362,266.999512 
	C713.757812,258.505615 713.915527,250.506653 713.680664,242.519241 
	C713.457397,234.924408 709.702637,229.966736 703.098694,227.756042 
	C695.905273,225.347992 687.836487,227.288101 683.303833,232.314133 
	C679.470154,236.565079 679.562317,241.789368 679.515503,246.919647 
	C679.400085,259.575897 679.475647,272.233856 679.474487,284.891144 
	C679.474304,286.531769 679.474487,288.172394 679.474487,290.242798 
	C673.403076,290.242798 667.692261,290.242798 661.596741,290.242798 
	C661.596741,264.160614 661.596741,238.112396 661.596741,211.610535 
	C667.268311,211.610535 672.971436,211.610535 678.988708,211.610535 
	C679.282959,213.592163 679.584717,215.624405 679.903381,217.770126 
	C700.540527,205.587753 712.211304,206.592056 729.008789,223.361893 
	C729.941040,221.623672 730.510925,219.483368 731.878357,218.179199 
	C744.570251,206.074356 765.613220,206.705933 777.330872,219.354233 
	C781.569397,223.929443 784.361023,229.316589 784.448425,235.474365 
	C784.705872,253.599091 784.540283,271.729828 784.540283,290.265930 
	C778.654907,290.265930 772.931091,290.265930 766.481201,290.265930 
	C766.481201,288.499390 766.481750,286.732544 766.481079,284.965698 
	C766.475891,271.309174 766.254578,257.648438 766.520569,243.997223 
	C766.841797,227.511444 749.712341,223.426437 739.797791,229.185684 
	C735.697449,231.567535 732.804871,235.061020 732.607056,239.938400 
	C732.229553,249.246307 732.126160,258.566895 732.014160,267.883514 
	C731.926208,275.197937 731.996460,282.514282 731.996460,290.248810 
	C725.984985,290.248810 720.258667,290.248810 713.771118,290.248810 
	C713.771118,282.688354 713.771118,275.093933 713.771362,266.999512 
z"/>
<path fill="#FC3407" opacity="1.000000" stroke="none" 
	d="
M1054.994751,279.960968 
	C1054.994751,243.669266 1054.994751,207.871552 1054.994751,171.641098 
	C1061.008423,171.641098 1066.730957,171.641098 1073.027588,171.641098 
	C1073.027588,186.944962 1073.027588,202.346634 1073.027588,219.564789 
	C1082.330566,210.813873 1092.235474,208.078018 1103.244995,209.781967 
	C1114.482422,211.521149 1122.897461,217.705688 1128.929199,227.123978 
	C1139.529541,243.675812 1137.320435,267.087097 1124.031494,280.873444 
	C1110.929688,294.465729 1094.340088,295.458832 1073.666992,283.560150 
	C1073.382202,285.769928 1073.124756,287.767670 1072.826904,290.078552 
	C1066.988647,290.078552 1061.265503,290.078552 1054.994751,290.078552 
	C1054.994751,286.704376 1054.994751,283.579651 1054.994751,279.960968 
M1081.587891,271.047699 
	C1091.015625,276.624847 1101.737549,276.089783 1108.990112,269.680145 
	C1116.844116,262.739014 1119.278198,249.654648 1114.465576,239.311234 
	C1110.678589,231.171936 1104.204468,226.873734 1095.180176,226.638092 
	C1086.012817,226.398712 1079.074463,230.202499 1074.801270,238.392548 
	C1069.189087,249.148758 1071.823486,262.564667 1081.587891,271.047699 
z"/>
<path fill="#FB3408" opacity="1.000000" stroke="none" 
	d="
M609.787476,278.972839 
	C609.787354,282.939636 609.787354,286.412292 609.787354,290.277039 
	C603.674011,290.277039 597.957214,290.277039 591.571594,290.277039 
	C591.571594,288.369995 591.573059,286.596161 591.571350,284.822296 
	C591.557983,271.329407 591.738403,257.832581 591.464539,244.344955 
	C591.269226,234.726898 585.514160,228.326141 576.670593,226.980103 
	C567.486938,225.582306 559.286926,229.989349 556.780823,238.236740 
	C555.740173,241.661469 555.601685,245.445755 555.558594,249.072525 
	C555.416077,261.064667 555.504150,273.059509 555.503784,285.053314 
	C555.503723,286.685516 555.503784,288.317719 555.503784,290.310181 
	C549.342102,290.310181 543.622742,290.310181 537.549866,290.310181 
	C537.549866,250.801239 537.549866,211.443832 537.549866,171.773499 
	C543.350891,171.773499 548.953186,171.773499 555.212524,171.773499 
	C555.212524,187.264465 555.212524,202.813339 555.212524,219.228653 
	C556.816284,218.197800 557.624939,217.793961 558.297546,217.228363 
	C568.504517,208.645126 580.028137,207.201996 591.985474,212.218338 
	C603.983032,217.251526 609.438599,227.268646 609.698181,239.999710 
	C609.959595,252.821335 609.776123,265.652008 609.787476,278.972839 
z"/>
<path fill="#FC3408" opacity="1.000000" stroke="none" 
	d="
M364.330505,290.372803 
	C358.745911,290.462463 353.597076,290.462463 348.123749,290.462463 
	C347.805206,288.121918 347.506195,285.925201 347.097504,282.922333 
	C337.345612,291.341003 326.580872,293.858826 314.664093,291.155853 
	C306.214264,289.239288 299.425964,284.624176 294.128021,277.850861 
	C281.733765,262.005005 282.090363,238.257858 295.008881,222.772217 
	C301.588013,214.885712 309.959320,210.191452 320.342499,209.435516 
	C330.393677,208.703751 339.351044,211.392349 347.148804,219.201691 
	C347.542328,215.818390 347.802368,213.582687 348.069855,211.282959 
	C353.948242,211.282959 359.548401,211.282959 365.450836,211.282959 
	C365.603729,212.789612 365.844696,214.063797 365.845764,215.338181 
	C365.865265,238.800735 365.876221,262.263367 365.806366,285.725739 
	C365.801849,287.245880 365.128540,288.764038 364.330505,290.372803 
M322.213043,274.534698 
	C336.484924,276.170807 346.399567,268.768402 348.431000,254.960007 
	C350.447266,241.255188 343.018219,229.255966 331.147034,227.043304 
	C318.220642,224.633987 307.464294,231.670090 304.624603,244.392548 
	C301.438202,258.668457 308.263611,270.870789 322.213043,274.534698 
z"/>
<path fill="#FB3407" opacity="1.000000" stroke="none" 
	d="
M215.844177,215.885376 
	C229.760971,207.845566 243.774338,206.827805 257.455017,214.811844 
	C270.568604,222.464951 275.853577,234.883011 275.788055,249.742828 
	C275.777283,252.192780 275.211639,254.640289 274.837463,257.603516 
	C255.263290,257.603516 236.023636,257.603516 215.958527,257.603516 
	C217.785934,265.082733 221.563599,270.092743 227.887772,272.701141 
	C239.119781,277.333771 249.388596,275.174133 258.240540,267.594055 
	C262.010101,271.212280 265.780396,274.831238 270.069183,278.947876 
	C259.845947,290.050568 246.793030,293.648132 231.999405,291.580444 
	C214.969818,289.200317 202.150330,277.378418 198.157410,261.079742 
	C193.905548,243.723984 200.334763,227.073700 215.844177,215.885376 
M222.730652,242.699646 
	C234.250137,242.699646 245.769623,242.699646 257.462402,242.699646 
	C255.368744,231.804764 248.286026,226.241135 237.690186,226.274048 
	C226.528229,226.308716 218.315964,232.406418 216.443298,242.698837 
	C218.316589,242.698837 220.064346,242.698837 222.730652,242.699646 
z"/>
<path fill="#FC3407" opacity="1.000000" stroke="none" 
	d="
M959.397217,265.584717 
	C953.349060,245.844406 958.736572,228.269684 973.955872,217.228531 
	C987.789124,207.192856 1007.655029,206.940063 1021.846252,216.619080 
	C1036.545044,226.644241 1043.072144,244.485641 1038.396729,261.858887 
	C1033.860107,278.717255 1019.112244,290.766083 1001.432983,292.058258 
	C982.869019,293.415131 967.150513,283.614960 959.397217,265.584717 
M1015.611328,234.950485 
	C1007.213928,226.442749 995.475952,224.635712 986.070801,230.402740 
	C976.899780,236.026199 973.080200,248.181625 976.908020,259.563141 
	C980.085815,269.012054 987.900269,274.467377 998.228210,274.447083 
	C1008.712219,274.426483 1016.961975,268.757202 1019.812683,259.190094 
	C1022.316711,250.786575 1021.610474,242.724960 1015.611328,234.950485 
z"/>
<path fill="#FB3509" opacity="1.000000" stroke="none" 
	d="
M871.208496,224.378510 
	C856.653687,256.201813 842.186157,287.651031 827.940369,319.200409 
	C826.306274,322.819305 824.388428,324.230316 820.453552,323.923706 
	C815.838684,323.564117 811.174255,323.839539 805.948975,323.839539 
	C806.533508,322.161560 806.833984,320.928223 807.372986,319.809875 
	C812.502930,309.164703 817.532288,298.466919 822.910400,287.947754 
	C824.740723,284.367828 824.879333,281.420258 823.256348,277.667603 
	C814.469910,257.352234 805.970459,236.912643 797.390991,216.507935 
	C796.765869,215.021332 796.290894,213.471634 795.497498,211.257263 
	C801.880493,211.257263 807.661743,211.005524 813.388428,211.451950 
	C814.661072,211.551147 816.184937,213.932571 816.841309,215.565399 
	C822.365479,229.307892 827.710388,243.122421 833.122864,256.909882 
	C833.719849,258.430634 834.403076,259.917542 835.467957,262.405121 
	C837.218079,258.500793 838.621521,255.550873 839.876221,252.538971 
	C845.059753,240.095413 850.269043,227.661514 855.299744,215.156067 
	C856.448730,212.299759 857.918091,210.971527 861.158447,211.154266 
	C866.105896,211.433243 871.080688,211.227417 877.155884,211.227417 
	C874.991089,216.012146 873.176392,220.023148 871.208496,224.378510 
z"/>
<path fill="#FB3509" opacity="1.000000" stroke="none" 
	d="
M154.508759,258.171753 
	C149.733719,256.524689 145.226624,255.253830 140.971924,253.402786 
	C124.010956,246.023788 126.501350,224.282547 135.944870,216.125229 
	C149.283157,204.603592 176.464111,207.892914 186.419128,222.582703 
	C182.568832,226.139923 178.719620,229.696121 174.633286,233.471405 
	C169.899475,227.891510 163.069595,225.353806 155.138062,226.006134 
	C151.326477,226.319611 146.957535,226.704895 146.171799,231.526672 
	C145.368774,236.454422 149.420593,238.002838 153.071091,239.315063 
	C160.106857,241.844193 167.442871,243.671127 174.226135,246.736786 
	C183.292923,250.834518 187.557510,258.326782 186.996964,268.467194 
	C186.583878,275.939911 183.504196,281.909088 177.564072,286.385681 
	C163.328140,297.114166 134.998917,292.449646 124.782845,277.722687 
	C128.478958,274.238831 132.185822,270.744843 136.300156,266.866791 
	C141.515305,272.298248 148.697327,275.692596 157.288101,275.397339 
	C159.758789,275.312408 162.489731,275.332031 164.596146,274.286194 
	C166.569031,273.306641 169.030777,271.066254 169.168457,269.223206 
	C169.328568,267.079834 167.757950,263.882874 165.933090,262.717743 
	C162.648010,260.620209 158.613892,259.695770 154.508759,258.171753 
z"/>
<path fill="#FC3408" opacity="1.000000" stroke="none" 
	d="
M522.917236,224.297363 
	C519.309265,227.957932 515.874084,231.339981 512.100830,235.054810 
	C505.467529,228.487778 497.160736,225.579559 488.122864,227.934937 
	C483.448059,229.153214 478.497253,232.098007 475.316620,235.711227 
	C467.585358,244.494141 468.821014,260.171082 476.936615,268.220367 
	C485.684967,276.897308 499.615387,276.446564 513.204773,266.037720 
	C514.748657,268.027344 516.276184,270.395020 518.206604,272.368591 
	C520.048950,274.252136 522.310974,275.725159 525.240356,278.056610 
	C520.576172,281.659302 517.452759,284.660736 513.815186,286.779236 
	C498.401550,295.756104 477.472595,293.350739 464.511444,281.390167 
	C451.615509,269.489777 447.786469,249.470779 455.274353,233.097015 
	C462.607635,217.061249 479.691711,207.727386 497.905212,209.805161 
	C506.417603,210.776245 514.032898,213.855667 520.356567,219.708008 
	C521.563660,220.825150 522.193726,222.565842 522.917236,224.297363 
z"/>
<path fill="#FC3307" opacity="1.000000" stroke="none" 
	d="
M923.932617,217.155792 
	C924.007629,215.056656 924.082581,213.435913 924.170288,211.538269 
	C930.105225,211.538269 935.683228,211.538269 941.590088,211.538269 
	C941.761169,212.523636 942.062805,213.452286 942.063354,214.381104 
	C942.079224,242.505859 942.195557,270.631561 941.995667,298.754974 
	C941.909241,310.913574 934.961548,320.151337 924.072205,323.755829 
	C911.868103,327.795532 898.781738,324.360687 891.380005,315.077362 
	C895.138550,311.496246 898.916748,307.896393 902.927734,304.074768 
	C903.496277,304.499603 904.484375,305.350311 905.576782,306.034363 
	C909.883423,308.731110 914.401123,308.938934 918.874756,306.632629 
	C922.922668,304.545776 923.943115,300.771118 923.940002,296.516815 
	C923.920593,270.222595 923.931641,243.928391 923.932617,217.155792 
z"/>
<path fill="#FC3509" opacity="1.000000" stroke="none" 
	d="
M404.463745,215.898499 
	C405.881165,215.818405 407.492188,215.616623 408.576599,214.753342 
	C419.071716,206.398605 435.806427,208.104919 443.843750,218.272995 
	C439.894562,221.969223 435.951477,225.659698 432.251617,229.122528 
	C428.466278,228.478546 423.819580,226.833008 419.285370,227.099762 
	C410.615662,227.609848 405.070221,233.980225 404.890411,242.684616 
	C404.601898,256.653320 404.542450,270.626770 404.392242,284.598297 
	C404.372955,286.391724 404.389587,288.185547 404.389587,290.325836 
	C398.193115,290.325836 392.483765,290.325836 386.480896,290.325836 
	C386.356903,288.837311 386.158478,287.558441 386.157471,286.279419 
	C386.139008,262.974884 386.241608,239.669586 386.054047,216.366562 
	C386.020599,212.211731 387.191803,210.654388 391.368988,211.097290 
	C394.332306,211.411499 397.379181,211.403381 400.345215,211.105362 
	C403.900238,210.748169 404.762817,212.427444 404.463745,215.898499 
z"/>
<path fill="#FB370C" opacity="1.000000" stroke="none" 
	d="
M940.342590,194.406158 
	C934.453308,197.765579 929.589355,197.496964 925.872192,193.871796 
	C922.335083,190.422287 921.505005,184.893524 923.870667,180.539886 
	C926.164368,176.318588 930.855713,174.213150 935.750854,175.208282 
	C944.139465,176.913620 946.624451,186.574539 940.342590,194.406158 
z"/>
<path fill="#EDECED" opacity="1.000000" stroke="none" 
	d="
M1081.290283,270.834229 
	C1071.823486,262.564667 1069.189087,249.148758 1074.801270,238.392548 
	C1079.074463,230.202499 1086.012817,226.398712 1095.180176,226.638092 
	C1104.204468,226.873734 1110.678589,231.171936 1114.465576,239.311234 
	C1119.278198,249.654648 1116.844116,262.739014 1108.990112,269.680145 
	C1101.737549,276.089783 1091.015625,276.624847 1081.290283,270.834229 
z"/>
<path fill="#EDECED" opacity="1.000000" stroke="none" 
	d="
M321.804749,274.455811 
	C308.263611,270.870789 301.438202,258.668457 304.624603,244.392548 
	C307.464294,231.670090 318.220642,224.633987 331.147034,227.043304 
	C343.018219,229.255966 350.447266,241.255188 348.431000,254.960007 
	C346.399567,268.768402 336.484924,276.170807 321.804749,274.455811 
z"/>
<path fill="#EEE2E1" opacity="1.000000" stroke="none" 
	d="
M222.271378,242.699249 
	C220.064346,242.698837 218.316589,242.698837 216.443298,242.698837 
	C218.315964,232.406418 226.528229,226.308716 237.690186,226.274048 
	C248.286026,226.241135 255.368744,231.804764 257.462402,242.699646 
	C245.769623,242.699646 234.250137,242.699646 222.271378,242.699249 
z"/>
<path fill="#EDECED" opacity="1.000000" stroke="none" 
	d="
M1015.841064,235.230835 
	C1021.610474,242.724960 1022.316711,250.786575 1019.812683,259.190094 
	C1016.961975,268.757202 1008.712219,274.426483 998.228210,274.447083 
	C987.900269,274.467377 980.085815,269.012054 976.908020,259.563141 
	C973.080200,248.181625 976.899780,236.026199 986.070801,230.402740 
	C995.475952,224.635712 1007.213928,226.442749 1015.841064,235.230835 
z"/>
</svg>